# OBJ generated by ONSHAPE BY PTC INC, 1.208 Units = meters
mtllib ground-truth_joint_set_12537_cond - Open CASCADE STEP translator 7.5 977.mtl
g Open CASCADE STEP translator 7.5 977
v -0.000115384 -0.000146154 -0.001 
v -0.000115384 0.000146154 -0.001 
v 0.000115385 0.000146154 -0.001 
v 0.000115385 -0.000146154 -0.001 
v -0.000115384 -0.000146154 0.001 
v 0.000115385 -0.000146154 0.001 
v -0.000115384 0.000146154 0.001 
v 0.000115385 0.000146154 0.001 
vn 0 0 -1 
vn 0 -1 0 
vn 0 0 1 
vn 1 0 0 
vn 0 1 0 
vn -1 0 0 
usemtl 1.000000_0.709804_0.549020_0.000000_0.000000
o mesh0
f 1//1 2//1 3//1 
f 3//1 4//1 1//1 
o mesh1
f 5//2 1//2 4//2 
f 4//2 6//2 5//2 
o mesh2
f 7//3 5//3 6//3 
f 6//3 8//3 7//3 
o mesh3
f 3//4 8//4 6//4 
f 6//4 4//4 3//4 
o mesh4
f 2//5 7//5 8//5 
f 8//5 3//5 2//5 
o mesh5
f 7//6 2//6 1//6 
f 1//6 5//6 7//6 
